<svg fill="none" height="32" viewBox="0 0 47 32" width="47" xmlns="http://www.w3.org/2000/svg" xmlns:xlink="http://www.w3.org/1999/xlink"><clipPath id="a"><path d="m0 0h46.6v31.49h-46.6z"/></clipPath><g clip-path="url(#a)"><g fill="#D1D7DC"><path d="m30.54 20.62-9.52-16.6 6.84-4.02 11.9 20.62"/><path d="m13.09 11.2 6.94-3.92 7.64 13.34h-7.24v1.96h-1.98v-1.96"/><path d="m5.06 18.3 6.84-3.97 3.67 6.29h-9.22"/><path d="m45.31 22.64c-.2652 0-.5196-.1054-.7071-.2929s-.2929-.4419-.2929-.7071.1054-.5196.2929-.7071.4419-.2929.7071-.2929.5196.1054.7071.2929.2929.4419.2929.7071-.1054.5196-.2929.7071-.4419.2929-.7071.2929zm0-1.83c-.1702-.012-.34.0274-.4874.1132-.1475.0858-.2657.2139-.3393.3678-.0737.1539-.0993.3263-.0736.495.0257.1686.1016.3256.2177.4505.1161.125.2672.2121.4335.2501.1663.0379.3401.025.499-.0372.1588-.0622.2953-.1707.3916-.3115s.1481-.3073.1485-.4779c.0083-.1087-.006-.2179-.042-.3208s-.0929-.1972-.1671-.277c-.0742-.0799-.1641-.1435-.2641-.1869-.0999-.0434-.2078-.0656-.3168-.0653"/><path d="m45.52 22.2-.2-.45h-.2v.45h-.15v-1.07h.45c.0763.0111.1466.0479.1993.1042s.0847.1289.0907.2058c.0066.0654-.0084.1311-.0427.1871s-.0861.0992-.1473.1229l.19.45zm-.2-.94h-.2v.36h.2c.2 0 .2-.05.2-.18s0-.18-.2-.18z"/><path d="m43.03 31.47c-2.18 0-3.47-1.11-3.57-2.72h2.08c0 .54.3 1.25 1.59 1.3.89 0 1.38-.54 1.38-.94-.09-.63-.89-.67-1.68-.81-.7137-.0843-1.413-.2625-2.08-.53-.3357-.1946-.6119-.4773-.7987-.8174-.1869-.3401-.2772-.7249-.2613-1.1126 0-1.43 1.2-2.54 3.28-2.54s3.27 1 3.37 2.58h-2c0-.39-.1-1.07-1.29-1.07-.8 0-1.29.14-1.39.72 0 .8 1.68.76 3 1.07.5301.0687 1.0197.3199 1.3847.7105.365.3905.5825.896.6153 1.4295 0 2-1.59 2.72-3.57 2.72"/><path d="m32.22 27.38c-.0013.2998.0567.5969.1709.8741.1141.2772.282.5291.4939.7411.212.2119.4639.3798.7411.4939.2772.1142.5743.1722.8741.1709.6007-.0128 1.1732-.2571 1.5981-.6819.4248-.4249.6691-.9974.6819-1.5981-.0224-.5966-.2702-1.1625-.6932-1.5837-.4231-.4213-.9901-.6665-1.5868-.6863-.6022.0026-1.1791.2423-1.6058.6671-.4267.4249-.6689 1.0008-.6742 1.6029zm2.18 4.11c-1.0485-.0519-2.0368-.5049-2.7605-1.2653s-1.1273-1.77-1.1273-2.8197.4036-2.0593 1.1273-2.8197 1.712-1.2134 2.7605-1.2653c.8486-.0219 1.6821.2268 2.38.71v-.62h1.91v7.9h-1.91v-.47c-.7125.4473-1.5388.6799-2.38.67"/><path d="m23.1 27.38c.0128.6007.2571 1.1732.6819 1.5981.4249.4248.9974.6691 1.5981.6819.3023.0053.6026-.0498.8833-.1621s.5362-.2796.7513-.492c.2152-.2123.3858-.4656.5018-.7448s.175-.5788.1736-.8811c-.0052-.6021-.2475-1.178-.6742-1.6028-.4267-.4249-1.0036-.6646-1.6058-.6672-.6019.0123-1.1764.2542-1.6058.6762-.4295.422-.6814.9922-.7042 1.5938zm4.59-6.69h2v10.62h-2v-.47c-.6688.4613-1.4679.6962-2.28.67-.5534.0274-1.1067-.058-1.6262-.2509-.5194-.1929-.9943-.4894-1.3957-.8714-.4013-.382-.7209-.8416-.9393-1.3509s-.331-1.0577-.331-1.6118.1126-1.1025.331-1.6118.538-.9689.9393-1.3509c.4014-.382.8763-.6785 1.3957-.8714.5195-.1929 1.0728-.2783 1.6262-.2509.8196-.0371 1.6263.2141 2.28.71z"/><path d="m19.44 31.24v-7.95z"/></g><path d="m19.44 31.24v-7.95" stroke="#D1D7DC" stroke-width="2"/><g fill="#D1D7DC"><path d="m11 27.38c-.0013.2998.0567.5969.1709.8741.1141.2772.282.5291.4939.7411.212.2119.4639.3798.7411.4939.2772.1142.5743.1722.8741.1709.6016-.0127 1.1753-.2566 1.6018-.6812.4264-.4246.6729-.9972.6882-1.5988-.0249-.5975-.2748-1.1635-.6995-1.5845-.4247-.4209-.9928-.6658-1.5905-.6855-.6014.0052-1.1768.2457-1.603.67-.4261.4243-.6692.9987-.677 1.6zm2.19 4.11c-.6382-.0098-1.2652-.1689-1.8309-.4645s-1.0544-.7195-1.42696-1.2377c-.37255-.5183-.61864-1.1165-.71858-1.7469-.09993-.6304-.05094-1.2755.14305-1.8835.194-.6081.52762-1.1623.97419-1.6184.4465-.456.9936-.8012 1.5975-1.008.6038-.2067 1.2477-.2693 1.88-.1826.6324.0866 1.2357.32 1.7617.6816v-3.34h2v10.62h-2v-.47c-.7125.4473-1.5388.6799-2.38.67"/><path d="m1.88 27.38c.01276.6007.25707 1.1732.68192 1.5981.42485.4248.99739.6691 1.59808.6819.29979.0013.59687-.0567.87409-.1709.27722-.1141.52909-.282.74107-.4939.21198-.212.37987-.4639.49399-.7411.11411-.2772.17218-.5743.17085-.8741-.00525-.6021-.24746-1.178-.6742-1.6029-.42673-.4248-1.00363-.6645-1.6058-.6671-.59668.0198-1.16368.265-1.58676.6863-.42308.4212-.6708.9871-.69324 1.5837zm2.18 4.11c-1.04845-.0519-2.03681-.5049-2.7605-1.2653-.7237-.7604-1.12732-1.77-1.12732-2.8197s.40362-2.0593 1.12732-2.8197c.72369-.7604 1.71205-1.2134 2.7605-1.2653.84858-.0219 1.6821.2268 2.38.71v-.62h2v7.9h-2v-.47c-.70603.4617-1.53678.6956-2.38.67"/></g></g></svg>