<svg fill="none" height="26" viewBox="0 0 151 26" width="151" xmlns="http://www.w3.org/2000/svg" xmlns:xlink="http://www.w3.org/1999/xlink"><clipPath id="a"><path d="m0 0h150.31v25.01h-150.31z"/></clipPath><g clip-path="url(#a)" fill="#D1D7DC"><path d="m58.96 2.29c0-.45335.1346-.89649.3866-1.27329.2521-.376803.6104-.670309 1.0294-.843336.419-.17302671.88-.2177886 1.3244-.1286149.4445.0891739.8526.3082699 1.1724.6295339.3199.321263.5372.730237.6244 1.175107.0872.44488.0405.90563-.1344 1.32389-.1749.41827-.4699.77522-.8478 1.02564-.3779.25043-.8217.38305-1.275.38107-.6056-.00265-1.1855-.24508-1.6128-.67425s-.6672-1.01013-.6672-1.61575"/><path d="m95 17.53c0-.4533.1346-.8965.3866-1.2733.2521-.3768.6104-.6703 1.0294-.8433.419-.1731.88-.2178 1.3244-.1286.4445.0891.8526.3082 1.1724.6295.3199.3213.5372.7302.6244 1.1751s.0405.9056-.1344 1.3239-.4699.7752-.8478 1.0256c-.3779.2505-.8217.3831-1.275.3811-.6056-.0026-1.1855-.2451-1.6128-.6743-.4273-.4291-.6672-1.0101-.6672-1.6157"/><path d="m21.46 16.54c-2 0-3.33-1.57-3.33-3.8s1.37-3.79 3.33-3.79 3.37 1.56 3.37 3.79-1.36 3.8-3.37 3.8zm0-10.93c-.9483-.03612-1.894.12322-2.7781.4681s-1.6879.86793-2.3613 1.53664-1.2021 1.46879-1.5531 2.3505c-.3511.88166-.517 1.82616-.4875 2.77476-.0295.9486.1364 1.8931.4875 2.7748.351.8817.8797 1.6817 1.5531 2.3505.6734.6687 1.4772 1.1917 2.3613 1.5366s1.8298.5042 2.7781.4681c.9509.0388 1.8996-.1184 2.7871-.4618.8875-.3435 1.695-.8657 2.3721-1.5344s1.2095-1.4695 1.564-2.3527c.3546-.8832.5236-1.8298.4968-2.7811.0268-.9513-.1422-1.8979-.4968-2.78109-.3545-.88317-.8869-1.68398-1.564-2.35267-.6771-.6687-1.4846-1.19098-2.3721-1.5344-.8875-.34341-1.8362-.50061-2.7871-.46184z"/><path d="m54.53 13.1c-.1395-.2828-.3216-.5425-.54-.77l-.13-.13.14-.13c.2092-.2242.3998-.465.57-.72l3.67-5.46h-4.46l-2.76 4.27c-.1156.1314-.262.2321-.426.2932s-.3406.0806-.514.0568h-.67v-8.1c0-1.590002-1-1.810002-2-1.810002h-1.91v19.060002h3.91v-5.72h.37c.45 0 .76.05.9.3l2.18 4.11c.1905.4506.5265.8244.9542 1.0618s.9226.3248 1.4058.2482h3l-2.25-3.73-1.5-2.83"/><path d="m73.72 5.58c-.7446-.01684-1.4846.12112-2.1732.40515-.6885.28402-1.3106.70792-1.8268 1.24485l-.24.24-.07-.33c-.1289-.413-.4016-.76616-.7685-.99547-.3668-.22931-.8038-.31961-1.2315-.25453h-1.79v13.76h3.92v-6.34c-.0097-.5601.0748-1.1179.25-1.65.18-.6999.5908-1.3186 1.1661-1.75595.5753-.43737 1.2814-.66781 2.0039-.65405 1.23 0 1.71.64 1.71 2.32v6c-.0462.284-.0244.575.0636.8489.0881.274.2398.5232.4428.7272.203.2039.4514.3569.725.4462.2735.0893.5644.1125.8486.0677h1.87v-8.76c0-3.48-1.7-5.32-4.91-5.32"/><path d="m61.29 5.89h-1.88v10.65 3.12h3.91v-11.68c.0436-.28269.0203-.57165-.068-.8437s-.2392-.51961-.4404-.72283c-.2013-.20322-.4474-.35643-.7186-.44734-.2712-.0909-.5599-.11698-.843-.07613"/><path d="m36.88 16.54c-2 0-3.34-1.57-3.34-3.8s1.37-3.79 3.34-3.79 3.36 1.56 3.36 3.79-1.35 3.8-3.36 3.8zm0-10.93c-.9492-.03752-1.8959.12077-2.7812.46502s-1.6903.86708-2.3648 1.53594-1.204 1.46942-1.5557 2.35183-.5179 1.82781-.4883 2.77721c-.0296.9494.1366 1.8948.4883 2.7772s.8812 1.683 1.5557 2.3518c.6745.6689 1.4795 1.1917 2.3648 1.536.8853.3442 1.832.5025 2.7812.465.9501.0374 1.8976-.1209 2.784-.4649.8864-.3441 1.6926-.8666 2.3686-1.5351.6761-.6686 1.2075-1.4689 1.5614-2.3514.354-.8824.5228-1.8282.496-2.7786.0268-.9504-.142-1.8962-.496-2.77864-.3539-.88247-.8853-1.6828-1.5614-2.35134-.676-.66855-1.4822-1.19105-2.3686-1.5351-.8864-.34404-1.8339-.50229-2.784-.46492z"/><path d="m121 16.54c-2 0-3.34-1.57-3.34-3.8s1.37-3.79 3.34-3.79 3.41 1.56 3.41 3.79-1.4 3.8-3.41 3.8zm0-10.93c-.949-.03752-1.896.12077-2.781.46502-.886.34425-1.69.86708-2.365 1.53594-.674.66886-1.204 1.46942-1.556 2.35183-.351.88241-.518 1.82781-.488 2.77721 0 1.9096.759 3.7409 2.109 5.0912 1.35 1.3502 3.181 2.1088 5.091 2.1088s3.741-.7586 5.091-2.1088c1.35-1.3503 2.109-3.1816 2.109-5.0912.027-.9504-.142-1.8962-.496-2.77864-.354-.88247-.885-1.6828-1.561-2.35134-.676-.66855-1.483-1.19105-2.369-1.5351-.886-.34404-1.834-.50229-2.784-.46492z"/><path d="m86.9 15.93c-2.15 0-2.91-1.87-2.91-3.63 0-.77.2-3.29 2.7-3.29 1.25 0 2.91.36 2.91 3.42 0 2.89-1.47 3.5-2.7 3.5zm4.74-10.07c-.3203-.02651-.6416.03834-.9266.18701-.2849.14868-.5219.3751-.6834.65299l-.11.21-.18-.16c-1.0143-.83127-2.2999-1.25862-3.61-1.2-3.67 0-6.14 2.76-6.14 6.86s2.56 7 6.21 7c1.0715.0483 2.1282-.2651 3-.89l.31-.22v.38c0 1.84-1.19 2.85-3.35 2.85-.9019-.0077-1.7954-.1735-2.64-.49-.1593-.0785-.3344-.1196-.5119-.1204-.1776-.0007-.353.0389-.513.116-.1599.0771-.3003.1896-.4103.329-.11.1393-.1869.3019-.2248.4754l-.31.77-.44 1.12.27.15c1.4876.757 3.1309 1.1576 4.8 1.17 3.35 0 7.25-1.71 7.25-6.53v-12.66z"/><path d="m6.85 16.41h-3.19v-3.85c0-.82.31-1.25 1-1.34h2.19c.34268-.0254.68681.0234 1.00892.1431.3221.1197.61462.3074.85759.5504.24298.243.43071.5355.55038.8576.11968.3221.16849.6662.14311 1.0089.038.3486-.0015.7013-.11569 1.0329s-.30023.6338-.54484.8851c-.2446.2513-.54171.4454-.87008.5685-.32836.1231-.67988.1721-1.02939.1435zm-3.19-10.34v-1c0-.88.37-1.3 1.18-1.35h1.64c.30108-.02769.60457.01124.88892.11402.28434.10278.54258.26689.75638.48068.21379.2138.37791.47204.48068.75638.10278.28435.14171.58784.11402.88892.02706.30039-.00998.6031-.10868.8881-.09869.285-.25679.5458-.46382.76512-.20704.21933-.45829.39218-.73713.50713s-.57892.16936-.88037.15965h-2.87zm7.27 3.82-.58-.33.51-.43c.5051-.44866.9057-1.00265 1.1735-1.62293.2678-.62027.3964-1.29174.3765-1.96707 0-3-2.33-4.929999-5.93-4.929999h-4.55c-.51821.018148-1.00911.236847-1.369175.609969-.360064.37313-.56114231.87151-.56082462 1.39003v17h6.58999962c4 0 6.57-2.18 6.57-5.55.0337-.828-.1554-1.6499-.5477-2.3798-.3922-.73-.9732-1.3413-1.6823-1.7702z"/><path d="m145.74 5.62c-.81.00452-1.61.19108-2.338.54591-.729.35483-1.369.86885-1.872 1.50409l-.29.36-.22-.41c-.364-.65371-.908-1.18943-1.568-1.54384-.659-.35441-1.406-.5127-2.152-.45616-.681.01148-1.353.16199-1.973.44228-.621.2803-1.178.68447-1.637 1.18772l-.38.4-.14-.53c-.129-.38943-.392-.72096-.741-.93666-.349-.21569-.763-.30182-1.169-.24334h-1.65v13.71h3.75v-6c.004-.5426.071-1.0829.2-1.61.36-1.46 1.34-3 3-2.87 1 .09 1.52.88 1.52 2.4v8.13h3.77v-6c-.014-.5608.056-1.1205.21-1.66.096-.7336.438-1.4129.971-1.927.532-.514 1.222-.83235 1.959-.903 1.15 0 1.58.66 1.58 2.41v6.13c0 1.38.62 2 2 2h1.77v-8.85c0-3.5-1.54-5.28-4.57-5.28"/><path d="m111.64 14.89c-.998 1.0099-2.333 1.6183-3.75 1.71-.514.033-1.03-.043-1.513-.223-.482-.18-.922-.4599-1.289-.8214-.367-.3616-.654-.7966-.842-1.2766-.187-.4801-.271-.9943-.246-1.509-.036-.5032.033-1.0084.203-1.4834.17-.4751.437-.9094.784-1.2755.347-.36599.767-.65562 1.232-.85038.466-.19475.967-.29036 1.471-.28072.7 0 1.5.25 1.63.68v.07c.081.28955.255.5443.496.7251.24.1807.533.2773.834.2749h2.06v-1.78c0-2.37-3-3.23-5-3.23-4.33 0-7.48 3-7.48 7.18-.024.9673.153 1.929.52 2.8244s.915 1.705 1.61 2.3778c.696.6728 1.523 1.1942 2.43 1.5311.907.337 1.874.4823 2.84.4267 1.083.0148 2.156-.1973 3.152-.6227.995-.4254 1.891-1.0547 2.628-1.8473l.11-.13-1.63-2.7-.21.23"/></g></svg>