<svg fill="none" height="20" viewBox="0 0 110 20" width="110" xmlns="http://www.w3.org/2000/svg" xmlns:xlink="http://www.w3.org/1999/xlink"><clipPath id="a"><path d="m0 0h109.94v19.63h-109.94z"/></clipPath><g clip-path="url(#a)" fill="#D1D7DC"><path d="m64.58 0v7.72c.7292-.49656 1.5492-.84443 2.413-1.02373.8639-.17929 1.7545-.18647 2.6211-.02114s1.6921.49993 2.4293.98466c.7371.48473 1.3714 1.11006 1.8666 1.84021l.08.11c.7491 1.1711 1.0931 2.5558.9793 3.9413-.1138 1.3856-.6792 2.6955-1.6093 3.7287-1.0562 1.2184-2.5288 1.9993-4.13 2.19-.7844.135-1.588.1108-2.3628-.0713-.7748-.1822-1.5051-.5184-2.1472-.9887-.09.28-.15.5-.23.76h-3v-18.46zm7.33 13.06c.0233-.7293-.1701-1.4491-.5557-2.0685-.3857-.6194-.9464-1.11049-1.6111-1.41131-.6648-.30081-1.4038-.39779-2.1237-.27868-.7198.11911-1.3882.44895-1.9206.94789-.5325.4989-.9051 1.1444-1.0707 1.855s-.1168 1.4544.1401 2.1372c.257.6829.7107 1.2743 1.3037 1.6994s1.2988.6649 2.028.689h.08c.9644.0084 1.8939-.36 2.5906-1.0269.6967-.6668 1.1056-1.5793 1.1394-2.5431z"/><path d="m3.6 15.06c.26691.4004.61036.744 1.01058 1.0112.40021.2671.8493.4525 1.32143.5454.47212.0929.95796.0916 1.42957-.0039s.91968-.2834 1.31842-.5527c.20579-.1365.39682-.294.57-.47.12072-.1549.2869-.268.47521-.3236.18832-.0556.38929-.0509.57479.0136.73.2 1.47.37 2.4.6-.3895.6026-.8205 1.1774-1.29 1.72-.8511.9023-1.94389 1.5406-3.14795 1.8385s-2.46842.2429-3.64205-.1585c-1.19567-.333-2.26632-1.0118-3.07758-1.9512-.811264-.9393-1.32698-2.0974-1.4824195-3.3288-.2150645-1.6321.1923285-3.2853 1.1410895-4.63066.94876-1.34532 2.36932-2.28405 3.97891-2.62934.85379-.20122 1.73898-.23127 2.60445-.08843.86547.14285 1.69406.45576 2.43795.92066.7438.4649 1.3882 1.07258 1.8958 1.78794.5077.71533.8685 1.52423 1.0618 2.37983-.0048.0566-.0048.1134 0 .17.2.91.17 1-.76 1.18l-8.25 1.85c-.19582.0041-.38915.0448-.57.12zm-.6-2.48 6.6-1.5c-.38291-.615-.94772-1.09561-1.61609-1.37514-.66837-.27954-1.40717-.34414-2.11391-.18486-.74889.12212-1.43638.4884-1.95546 1.0419-.51908.5534-.84061 1.2629-.91454 2.0181z"/><path d="m100.4 15.06c.494.7649 1.259 1.3152 2.141 1.5413.883.2262 1.818.1114 2.619-.3213.292-.1322.554-.3227.77-.56.4-.58.87-.52 1.44-.35s1.31.31 2 .48c-.494 1.1041-1.3 2.0393-2.32 2.69-1.482.9735-3.289 1.3192-5.025.961-1.736-.3581-3.2596-1.3907-4.235-2.871-.4799-.6906-.8196-1.4686-1-2.29-.1557-.8498-.142-1.7221.0404-2.5666.1823-.8445.5297-1.6447 1.0222-2.35461.4925-.70989 1.1203-1.31551 1.8475-1.78208.7269-.46657 1.5389-.7849 2.3899-.93671h.22c1.491-.21737 3.011.07012 4.319.81672 1.309.74659 2.33 1.90938 2.901 3.30328.159.5089.289 1.0264.39 1.55.1.41-.09.59-.51.68-2.81.62-5.62 1.26-8.43 1.9zm6-4c-.468-.7277-1.183-1.26204-2.013-1.50457-.831-.24254-1.721-.17699-2.507.18457-1.27.56-2.22 1.87-2 2.79z"/><path d="m28.92 15.06c.26.91 1.9 1.78 3.24 1.63.9667-.0819 1.8685-.5203 2.53-1.23.0741-.0783.1644-.1394.2646-.1791s.2078-.0571.3154-.0509c.85.16 1.69.37 2.64.58-.441.972-1.131 1.8103-2 2.43-.696.5319-1.4899.9215-2.3365 1.1465s-1.7292.2811-2.5974.1651c-.8682-.1161-1.7051-.4021-2.4628-.8416s-1.4215-1.024-1.9533-1.72c-.6436-.8383-1.0758-1.8193-1.26-2.86-.2748-1.6775.1174-3.3959 1.0929-4.78802.9754-1.39212 2.4566-2.3475 4.1271-2.66198 1.7167-.35579 3.5045-.0182 4.9732.93911 1.4688.95731 2.4993 2.45669 2.8668 4.17089.22 1 .19 1-.75 1.25l-8.13 1.84zm6-4c-.4352-.6708-1.0808-1.17819-1.8356-1.44243-.7547-.26424-1.5758-.27042-2.3344-.01757-1.13.33-2.52 1.71-2.37 2.94z"/><path d="m42.8 7.65 1.2-.65c1.1644-.63344 2.5327-.77859 3.804-.40355 1.2714.37503 2.3418 1.23956 2.976 2.40355.4077.74859.6209 1.5876.62 2.44v7.79h-2.81c-.45 0-.34-.35-.34-.6v-5.5c-.0035-.5325-.047-1.064-.13-1.59-.28-1.48-1.3-2.14-3-2-.6215.01314-1.2125.27202-1.6436.72-.4311.4479-.6671 1.0484-.6564 1.67-.0049.0231-.0049.0469 0 .07v6.45c0 .59-.13.85-.77.8s-1.57 0-2.41 0v-11.78c0-.58.19-.73.73-.7.5526.03999 1.1074.03999 1.66 0 .51-.05.9.06.77.88z"/><path d="m12.5 6.77h3c.21 0 .49.35.58.6.92 2.35 1.82 4.71 2.72 7.07.09.24.19.47.35.84.15-.31.25-.51.34-.71.93-2.39 1.86-4.78 2.76-7.19.18-.47.39-.68.92-.65h2.83c-.4 1-.75 1.89-1.11 2.78-1.26 3.06-2.5267 6.12-3.8 9.18-.0425.1632-.1432.3052-.2833.3991-.14.094-.3096.1334-.4767.1109h-2.33c-.1245-.0147-.2441-.0574-.3498-.125-.1056-.0675-.1946-.1581-.2602-.265-1.61-3.81-3.19-7.71-4.77-11.53-.0524-.16685-.0925-.3373-.12-.51z"/><path d="m57.64 1.59v4.41c0 .63.2.84.8.78.4458-.03998.8942-.03998 1.34 0 .16 0 .42.19.42.31v2.66h-2.53v9.46h-3.1c-.1 0-.26-.39-.26-.6v-8.83h-1.5c-.5 0-.56-.09-.55-.49v-2.01c0-.36.15-.48.5-.48s1.2.11 1.39-.14c.1535-.49107.2045-1.00841.15-1.52v-2.34c0-.19.16-.5.3-.54.98-.26 1.98-.44 3.04-.67z"/><path d="m90.94 2.36h3.36v3.92c0 .39.13.55.51.54.5329-.03001 1.0671-.03001 1.6 0 .097.01625.1883.0569.2652.11812.077.06123.1371.14102.1748.23188v2.6h-1.75c-.56 0-.84.13-.83.8v8.6h-3.27v-8.68c0-.5-.14-.7-.65-.66s-.88 0-1.41 0v-2.67c0-.12.21-.25.34-.34s.16 0 .25 0c1.44 0 1.44 0 1.44-1.45z"/><path d="m79.36 19.28h-2.84c-.49 0-.37-.37-.38-.65v-11.28c0-.44.15-.6.59-.59h2.57c.0159.29556.0527.58962.11.88l3.61-1v3.2c-.46.07-.94.12-1.41.22-.319.0227-.6304.1085-.9161.2523-.2856.1438-.54.3428-.7483.5855s-.3664.5243-.4652.8285-.1363.6249-.1104.9437c-.0049.0332-.0049.0668 0 .1v5.68z"/><path d="m87.46 19.2h-3c0-.27 0-.49 0-.71v-11c0-.56.15-.76.71-.72s1.32 0 2 0c.31 0 .46.1.46.44v11.8c-.0456.0725-.103.1367-.17.19z"/><path d="m86 .28c.5135-.000642 1.0077.19629 1.38.55s.5943.83709.62 1.35c0 .53043-.2107 1.03914-.5858 1.41421-.3751.37508-.8838.58579-1.4142.58579-.543.01077-1.0683-.19332-1.4616-.56787-.3932-.37455-.6227-.88926-.6384-1.43213.0128-.26275.0773-.5204.1899-.75818.1125-.23778.2708-.45102.4659-.627513.1951-.176494.423-.31277.6709-.401023.2478-.088253.5106-.126749.7733-.113284z"/></g></svg>