<svg fill="none" height="26" viewBox="0 0 37 26" width="37" xmlns="http://www.w3.org/2000/svg" xmlns:xlink="http://www.w3.org/1999/xlink"><clipPath id="a"><path d="m0 0h36.74v26h-36.74z"/></clipPath><g clip-path="url(#a)"><path d="m.00001169.449999h5.57999831v15.000001c-.05223.8337.09675 1.6677.43438 2.4317s.85402 1.4357 1.50562 1.9583c-.85256.5893-1.87235.8881-2.90811.852-1.03576-.036-2.03233-.4049-2.84189-1.052-.5872-.5407-1.049691-1.2027-1.355344-1.94-.305652-.7374-.4471456-1.5325-.41465431-2.33zm34.85998831 12.440001v-1.57h1.7v-5.52h-1.86c-.3778-1.78252-1.4033-3.36154-2.8782-4.4315-1.4749-1.069966-3.2942-1.554801-5.106-1.36068611-1.8117.19411511-3.487 1.05337611-4.7017 2.41151611-1.2148 1.35813-1.8825 3.11858-1.8741 4.94067v12.89c.654.1041 1.3225.0688 1.9619-.1036.6393-.1723 1.2351-.4778 1.7481-.8964.5841-.5389 1.0446-1.1977 1.3502-1.9313.3055-.7336.4487-1.5246.4198-2.3187v-.47h2.79v-5.53h-2.79v-1.64c0-.49596.197-.9716.5477-1.32229s.8264-.54771 1.3223-.54771c.496 0 .9716.19702 1.3223.54771s.5477.82633.5477 1.32229v5.53c.0027 1.9529.7803 3.8249 2.1622 5.2049 1.3818 1.38 3.2549 2.1551 5.2078 2.1551v-5.49c-.4951-.0026-.9692-.2005-1.3194-.5506-.3501-.3501-.548-.8243-.5506-1.3194zm-21.12-7.09v8.1c-.0052.2237-.0985.4363-.2595.5917s-.3768.241-.6005.2383c-.1128.0054-.2255-.012-.3314-.0512s-.2028-.0993-.285-.1768c-.0821-.0774-.1478-.1707-.1931-.2741-.0453-.1035-.0693-.215-.0705-.3279v-8.1h-5.48999v9.52c0 1.72.58 3.89 3.23 4.59.70449.2296 1.45489.2813 2.18429.1504.7293-.1308 1.415-.4402 1.9957-.9004-.14 1-1.05 1.66-2.51 1.82-1.1013.0497-2.20015-.1414-3.21999-.56v5c1.79929.5574 3.70619.674 5.55999.34 3.37-.66 5.5-3.48 5.5-7.23v-12.73z" fill="#D1D7DC"/></g></svg>