<svg fill="none" height="22" viewBox="0 0 143 22" width="143" xmlns="http://www.w3.org/2000/svg" xmlns:xlink="http://www.w3.org/1999/xlink"><clipPath id="a"><path d="m0 0h142.86v21.93h-142.86z"/></clipPath><g clip-path="url(#a)" fill="#D1D7DC"><path d="m32.83 16.17 1.17-1.42c.953.9302 2.2282 1.4568 3.56 1.47 1.22 0 2-.57 2-1.42 0-.81-.45-1.24-2.54-1.74-2.4-.58-3.76-1.29-3.76-3.36 0-1.93 1.61-3.26 3.85-3.26 1.4875-.031 2.9375.46887 4.09 1.41l-1.06 1.45c-.8638-.71427-1.9399-1.1222-3.06-1.16-1.15 0-1.83.6-1.83 1.34 0 .87.51 1.26 2.67 1.77 2.38.58 3.63 1.45 3.63 3.3 0 2.11-1.66 3.37-4 3.37-1.7369.0279-3.4212-.5965-4.72-1.75z"/><path d="m42.85 14.73v-5.41h1.95v4.83c0 1.32.66 2.07 1.82 2.07.2708.0078.5401-.043.7895-.149.2493-.1059.4728-.2645.6552-.4649.1823-.2004.3192-.4379.4013-.6961.082-.2582.1072-.5311.074-.8v-4.79h2v8.5h-2v-.82c-.3426.352-.7586.6242-1.2184.797-.4597.1729-.952.2422-1.4416.203-.423.0157-.8444-.0602-1.2353-.2224-.391-.1622-.7424-.4069-1.03-.7173-.2877-.3105-.505-.6795-.637-1.0816-.1319-.4022-.1755-.8281-.1277-1.2487z"/><path d="m52.5699 9.32h2v1.41c.53-1.27 1.51-1.64 3-1.57v1.73h-.11c-1.71 0-2.9 1.14-2.9 3.7v3.23h-2z"/><path d="m58.23 9.31h2.09l2.28 5.92 2.32-5.92h2.04l-3.47 8.57h-1.75z"/><path d="m67 13.6c-.0269-.5649.0601-1.1295.2557-1.6602.1956-.5306.4959-1.0165.8831-1.4288.3871-.4124.8531-.74265 1.3704-.97129s1.0753-.35097 1.6408-.35971c2.71 0 4.08 2.12 4.08 4.57.0092.1832.0092.3668 0 .55h-6.31c.0534.6038.336 1.1641.7899 1.5659.4538.4017 1.0443.6144 1.6501.5941.435.0037.8659-.0834 1.2654-.2555.3994-.1722.7586-.4258 1.0546-.7445l1.13 1c-.424.5053-.9581.9069-1.5613 1.1738-.6032.267-1.2596.3922-1.9187.3662-.5784.0142-1.1536-.0905-1.69-.3075-.5364-.2171-1.0226-.5418-1.4284-.9543-.4059-.4124-.7228-.9037-.9312-1.4435-.2084-.5397-.3038-1.1166-.2804-1.6947zm6.26-.6c.0107-.5818-.2095-1.1442-.6124-1.564-.403-.4198-.9558-.6629-1.5376-.676-.584.0227-1.1375.2669-1.548.6829-.4105.4161-.6472.9728-.662 1.5571z"/><path d="m85.5199 6.54h2.11l3.43 5.75 3.43-5.75h2.1v11.28h-1.97v-8.09l-3.56 5.74h-.06l-3.53-5.71v8.06h-1.94z"/><path d="m98 13.61c0-1.2014.4773-2.3537 1.3268-3.2032.8492-.84953 2.0022-1.3268 3.2032-1.3268s2.354.47727 3.203 1.3268c.85.8495 1.327 2.0018 1.327 3.2032-.006.5882-.13 1.1693-.363 1.7095-.233.5401-.571 1.0287-.994 1.4371-.423.4085-.923.7287-1.472.9422-.548.2134-1.133.3158-1.721.3012-.586.0133-1.168-.0903-1.714-.3047-.545-.2144-1.0422-.5354-1.4621-.9441-.4198-.4087-.7541-.897-.9831-1.4363-.229-.5394-.3483-1.1189-.3508-1.7049zm7.12 0c.013-.3525-.044-.7041-.169-1.0341-.125-.3299-.314-.6315-.558-.8869-.243-.2554-.535-.4595-.858-.6002-.324-.1406-.672-.215-1.025-.2188-.341.009-.678.0857-.989.2257-.312.14-.593.3405-.826.5898-.234.2493-.415.5425-.535.8625-.119.3201-.1734.6607-.16 1.002-.0134.3517.044.7025.168 1.0318.124.3292.313.6304.555.8857s.533.4595.855.6008c.323.1412.67.2166 1.022.2217.343-.0063.681-.0812.994-.2201.313-.139.596-.3392.831-.5889.234-.2498.417-.5439.536-.8653.12-.3213.174-.6632.159-1.0057z"/><path d="m117.96 6.06h1.95v7.02l3.53-3.76h2.37l-3.39 3.47 3.5 5.04h-2.26l-2.56-3.67-1.19 1.24v2.43h-1.95z"/><path d="m125.76 13.6c-.026-.5654.063-1.1302.259-1.6609.197-.5307.498-1.0165.886-1.4287s.855-.74228 1.373-.97081c.518-.22852 1.076-.3508 1.642-.35959 2.7 0 4.07 2.12 4.07 4.57v.55h-6.25c.056.6046.34 1.1651.796 1.5666.455.4015 1.047.6138 1.654.5934.433.0029.863-.0845 1.26-.2567.398-.1722.755-.4253 1.05-.7433l1.13 1c-.425.5093-.962.9133-1.57 1.1805-.607.2671-1.267.3902-1.93.3595-.582.0197-1.161-.0808-1.703-.2953-.541-.2145-1.032-.5384-1.442-.9515-.41-.413-.731-.9062-.941-1.4488-.211-.5425-.308-1.1228-.284-1.7044zm6.3-.63c.008-.5827-.214-1.1451-.619-1.5646s-.958-.6623-1.541-.6754c-.587.0255-1.143.275-1.552.6972-.409.4221-.641.9849-.648 1.5728z"/><path d="m82.0399 9.31-2.35 5.8-2.34-5.8h-2.03l3.35 8.31-1.75 4.31h2.03l5.12-12.62z"/><path d="m140.84 9.31-2.36 5.8-2.34-5.8h-2.02l3.35 8.31-1.75 4.31h2.03l5.11-12.62z"/><path d="m116 12.41v5.41h-2v-4.82c0-1.32-.66-2.08-1.82-2.08-.264-.0001-.525.0553-.766.1627-.241.1073-.456.2642-.633.4604-.176.1962-.309.4273-.39.6783-.082.251-.109.5163-.081.7786v4.8h-2v-8.48h2v.86c.344-.35034.76-.62136 1.219-.79409.46-.17273.951-.243 1.441-.20591 1.9-.04 3.03 1.24 3.03 3.23z"/><path d="m25.2799 11.4c-.2728.003-.5445.0366-.81.1-.494-1.9391-1.5354-3.69515-3-5.05867s-3.2905-2.27695-5.26-2.63133l-.53-.08c-.0514-.61407.0635-1.23067.3328-1.78497.2692-.5543.6828-1.025832 1.1972-1.36503l-.21-.58s-2.82.87-3.15 3.29c-.14-.65-1.45-1.48-2.11-1.63l-.32.52c.2874.17621.5322.41367.7172.69543s.3054.60088.3528.93457c-1.973.35088-3.80321 1.26274-5.27162 2.62651-1.4684 1.36377-2.51282 3.1217-3.00833 5.06349-.5188-.1331-1.06173-.1413-1.58433-.024-.52259.1172-1.00996.3566-1.42218.6986-.412224.3419-.737558.7767-.949348 1.2686-.2117903.4919-.3040089 1.027-.2690995 1.5615.0349094.5344.1959535 1.053.4699355 1.5132s.653102.8489 1.106302 1.1344c.4532.2854.96758.4593 1.50098.5076.53341.0483 1.07066-.0305 1.56774-.2299.29129.7054.66023 1.3762 1.1 2l2.81-1.89c-.7889-1.1031-1.23421-2.4146-1.28-3.77-.0895-.7197-.02137-1.4502.19966-2.1409s.58966-1.3251 1.08034-1.8591c1.99995-1.74 4.24995-.94 5.62995.71h.38c1.38-1.65 3.59-2.44 5.62-.71.4907.534.8594 1.1684 1.0804 1.8591s.2891 1.4212.1996 2.1409c-.0422 1.3544-.4841 2.6661-1.27 3.77l2.82 1.96c.4403-.6218.8061-1.293 1.09-2 .6207.2397 1.2978.2926 1.9482.1523.6503-.1404 1.2454-.4679 1.7118-.9423.4643-.476.7779-1.0784.9015-1.7317.1236-.6534.0517-1.3287-.2066-1.9414s-.6916-1.1356-1.2457-1.5033c-.554-.3676-1.2042-.5637-1.8692-.5636zm-21.99995 4.38c-.25468-.0153-.49388-.1274-.66863-.3133s-.27183-.4316-.27137-.6867c-.00046-.2551.09662-.5008.27137-.6867s.41395-.298.66863-.3133c.19944-.0004.39446.0588.56.17 0 .52 0 1 .11 1.57-.17047.1556-.38952.2475-.62.26zm21.99995 0c-.2465.0021-.4851-.0869-.67-.25.06-.52.1-1 .11-1.57.1467-.0971.3164-.1537.492-.1643.1756-.0105.3508.0255.508.1043.1612.0858.2958.2141.3893.371.0934.1569.1421.3364.1407.519-.0011.2623-.1052.5137-.29.7-.0934.0927-.2042.166-.326.2158-.1219.0497-.2523.075-.384.0742z"/></g></svg>